AmstelvarA2-Italic_wght400.ufo
<glyph name="onesuperior" format="2">
  <advance width="497"/>
  <unicode hex="00B9"/>
  <outline>
    <contour>
      <point x="173" y="646" type="line"/>
      <point x="196" y="679"/>
      <point x="232" y="882"/>
      <point x="252" y="983" type="qcurve" smooth="yes"/>
      <point x="301" y="1248" type="line"/>
      <point x="319" y="1351" type="line"/>
      <point x="117" y="1257" type="line"/>
      <point x="66" y="1351" type="line"/>
      <point x="441" y="1539" type="line"/>
      <point x="516" y="1489" type="line"/>
      <point x="503" y="1458"/>
      <point x="479" y="1379"/>
      <point x="476" y="1366" type="qcurve" smooth="yes"/>
      <point x="407" y="1047" type="line"/>
      <point x="368" y="721" type="line"/>
      <point x="235" y="620" type="line"/>
    </contour>
  </outline>
</glyph>
<glyph name="tildecomb" format="2">
  <unicode hex="0303"/>
  <anchor x="0.0" y="1000" name="_top"/>
  <anchor x="79.0" y="1402" name="top"/>
  <outline>
    <contour>
      <point x="-385" y="1252" type="line"/>
      <point x="-327" y="1315"/>
      <point x="-129" y="1420"/>
      <point x="-44" y="1420" type="qcurve"/>
      <point x="9" y="1420"/>
      <point x="94" y="1392"/>
      <point x="134" y="1366" type="qcurve" smooth="yes"/>
      <point x="163" y="1349"/>
      <point x="284" y="1298"/>
      <point x="335" y="1298" type="qcurve" smooth="yes"/>
      <point x="387" y="1298"/>
      <point x="497" y="1351"/>
      <point x="536" y="1388" type="qcurve"/>
      <point x="595" y="1308" type="line"/>
      <point x="530" y="1232"/>
      <point x="351" y="1150"/>
      <point x="280" y="1150" type="qcurve" smooth="yes"/>
      <point x="219" y="1150"/>
      <point x="110" y="1195"/>
      <point x="80" y="1215" type="qcurve" smooth="yes"/>
      <point x="45" y="1238"/>
      <point x="-41" y="1273"/>
      <point x="-83" y="1273" type="qcurve" smooth="yes"/>
      <point x="-150" y="1273"/>
      <point x="-293" y="1201"/>
      <point x="-326" y="1173" type="qcurve"/>
    </contour>
  </outline>
</glyph>
<glyph name="Xi" format="2">
  <advance width="1330"/>
  <unicode hex="039E"/>
  <outline>
    <contour>
      <point x="203" y="1132" type="line"/>
      <point x="275" y="1500" type="line"/>
      <point x="1385" y="1500" type="line"/>
      <point x="1342" y="1132" type="line"/>
      <point x="1242" y="1132" type="line"/>
      <point x="1236" y="1342" type="line"/>
      <point x="807" y="1362" type="line"/>
      <point x="383" y="1342" type="line"/>
      <point x="317" y="1132" type="line"/>
    </contour>
    <contour>
      <point x="252" y="519" type="line"/>
      <point x="345" y="964" type="line"/>
      <point x="455" y="964" type="line"/>
      <point x="452" y="811" type="line"/>
      <point x="707" y="799" type="line"/>
      <point x="984" y="811" type="line"/>
      <point x="1042" y="964" type="line"/>
      <point x="1153" y="964" type="line"/>
      <point x="1065" y="519" type="line"/>
      <point x="965" y="519" type="line"/>
      <point x="965" y="662" type="line"/>
      <point x="681" y="673" type="line"/>
      <point x="409" y="662" type="line"/>
      <point x="352" y="519" type="line"/>
    </contour>
    <contour>
      <point x="7" y="0" type="line"/>
      <point x="13" y="398" type="line"/>
      <point x="123" y="398" type="line"/>
      <point x="156" y="148" type="line"/>
      <point x="596" y="128" type="line"/>
      <point x="1002" y="148" type="line"/>
      <point x="1091" y="398" type="line"/>
      <point x="1201" y="398" type="line"/>
      <point x="1117" y="0" type="line"/>
    </contour>
  </outline>
</glyph>
<glyph name="delta" format="2">
  <advance width="1018"/>
  <unicode hex="03B4"/>
  <outline>
    <contour>
      <point x="353.3132075471698" y="-17" type="qcurve" smooth="yes"/>
      <point x="544.3132075471698" y="-28"/>
      <point x="826.3132075471698" y="215"/>
      <point x="865.3132075471698" y="380" type="qcurve"/>
      <point x="904.3132075471698" y="567"/>
      <point x="788.3132075471698" y="834"/>
      <point x="581.3132075471698" y="1007" type="qcurve"/>
      <point x="491.3132075471698" y="1079"/>
      <point x="429.3132075471698" y="1181"/>
      <point x="443.3132075471698" y="1240" type="qcurve" smooth="yes"/>
      <point x="461.3132075471698" y="1315"/>
      <point x="636.3132075471698" y="1414"/>
      <point x="748.3132075471698" y="1406" type="qcurve" smooth="yes"/>
      <point x="798.3132075471698" y="1402"/>
      <point x="849.3132075471698" y="1373"/>
      <point x="849.3132075471698" y="1345" type="qcurve" smooth="yes"/>
      <point x="849.3132075471698" y="1173" type="line"/>
      <point x="872.3132075471698" y="1146" type="line"/>
      <point x="924.3132075471698" y="1156"/>
      <point x="996.3132075471698" y="1238"/>
      <point x="1009.3132075471698" y="1296" type="qcurve"/>
      <point x="1029.31320754717" y="1398"/>
      <point x="927.3132075471698" y="1526"/>
      <point x="800.3132075471698" y="1537" type="qcurve" smooth="yes"/>
      <point x="614.3132075471698" y="1551"/>
      <point x="316.3132075471698" y="1383"/>
      <point x="289.3132075471698" y="1256" type="qcurve" smooth="yes"/>
      <point x="268.3132075471698" y="1155"/>
      <point x="346.3132075471698" y="985"/>
      <point x="439.3132075471698" y="913" type="qcurve"/>
      <point x="437.3132075471698" y="907" type="line"/>
      <point x="252.3132075471698" y="872"/>
      <point x="36.31320754716981" y="652"/>
      <point x="4.31320754716981" y="501" type="qcurve" smooth="yes"/>
      <point x="-37.68679245283019" y="301"/>
      <point x="143.3132075471698" y="-4"/>
    </contour>
    <contour>
      <point x="355.3132075471698" y="96" type="qcurve" smooth="yes"/>
      <point x="238.3132075471698" y="106"/>
      <point x="133.3132075471698" y="314"/>
      <point x="168.3132075471698" y="488" type="qcurve" smooth="yes"/>
      <point x="198.3132075471698" y="638"/>
      <point x="390.3132075471698" y="808"/>
      <point x="551.3132075471698" y="828" type="qcurve"/>
      <point x="658.3132075471698" y="744"/>
      <point x="730.3132075471698" y="520"/>
      <point x="704.3132075471698" y="408" type="qcurve" smooth="yes"/>
      <point x="665.3132075471698" y="246"/>
      <point x="474.3132075471698" y="86"/>
    </contour>
  </outline>
</glyph>
<glyph name="epsilon" format="2">
  <advance width="936"/>
  <unicode hex="03B5"/>
  <anchor x="563" y="1000" name="GRKtop"/>
  <outline>
    <contour>
      <point x="294" y="-17" type="qcurve" smooth="yes"/>
      <point x="458" y="-17"/>
      <point x="709" y="132"/>
      <point x="772" y="223" type="qcurve"/>
      <point x="772" y="252" type="line"/>
      <point x="714" y="316" type="line"/>
      <point x="653" y="229"/>
      <point x="473" y="119"/>
      <point x="326" y="119" type="qcurve" smooth="yes"/>
      <point x="210" y="119"/>
      <point x="111" y="213"/>
      <point x="129" y="297" type="qcurve" smooth="yes"/>
      <point x="140" y="350"/>
      <point x="245" y="431"/>
      <point x="327" y="441" type="qcurve"/>
      <point x="521" y="413" type="line"/>
      <point x="598" y="573" type="line"/>
      <point x="579" y="609" type="line"/>
      <point x="348" y="565" type="line"/>
      <point x="289" y="578"/>
      <point x="218" y="661"/>
      <point x="231" y="721" type="qcurve" smooth="yes"/>
      <point x="246" y="799"/>
      <point x="444" y="893"/>
      <point x="559" y="886" type="qcurve" smooth="yes"/>
      <point x="610" y="883"/>
      <point x="651" y="849"/>
      <point x="651" y="825" type="qcurve" smooth="yes"/>
      <point x="651" y="653" type="line"/>
      <point x="674" y="626" type="line"/>
      <point x="739" y="639"/>
      <point x="817" y="757"/>
      <point x="817" y="835" type="qcurve" smooth="yes"/>
      <point x="817" y="912"/>
      <point x="714" y="1008"/>
      <point x="601" y="1015" type="qcurve" smooth="yes"/>
      <point x="417" y="1027"/>
      <point x="127" y="876"/>
      <point x="98" y="751" type="qcurve" smooth="yes"/>
      <point x="79" y="666"/>
      <point x="159" y="540"/>
      <point x="230" y="514" type="qcurve"/>
      <point x="229" y="507" type="line"/>
      <point x="117" y="478"/>
      <point x="-15" y="357"/>
      <point x="-31" y="286" type="qcurve" smooth="yes"/>
      <point x="-61" y="142"/>
      <point x="113" y="-17"/>
    </contour>
  </outline>
</glyph>
<glyph name="lambda" format="2">
  <advance width="998"/>
  <unicode hex="03BB"/>
  <outline>
    <contour>
      <point x="-7" y="0" type="line"/>
      <point x="73" y="15" type="line"/>
      <point x="358" y="520" type="line"/>
      <point x="441" y="657" type="line"/>
      <point x="505" y="769" type="line"/>
      <point x="511" y="767" type="line"/>
      <point x="518" y="634" type="line"/>
      <point x="563" y="76" type="line"/>
      <point x="605" y="-15" type="line"/>
      <point x="859" y="47" type="line"/>
      <point x="857" y="134" type="line"/>
      <point x="741" y="134" type="line"/>
      <point x="656" y="909" type="line"/>
      <point x="602" y="1459" type="line"/>
      <point x="560" y="1538" type="line"/>
      <point x="516" y="1538" type="line"/>
      <point x="296" y="1451" type="line"/>
      <point x="294" y="1355" type="line"/>
      <point x="436" y="1358" type="line"/>
      <point x="484" y="982" type="line"/>
      <point x="224" y="559" type="line"/>
      <point x="-94" y="70" type="line"/>
    </contour>
  </outline>
</glyph>
<glyph name="xi" format="2">
  <advance width="880"/>
  <unicode hex="03BE"/>
  <outline>
    <contour>
      <point x="452" y="-313" type="line"/>
      <point x="549" y="-313" type="line"/>
      <point x="666" y="65" type="line"/>
      <point x="620" y="95" type="line"/>
      <point x="542" y="105" type="line" smooth="yes"/>
      <point x="276" y="139"/>
      <point x="126" y="295"/>
      <point x="153" y="437" type="qcurve" smooth="yes"/>
      <point x="176" y="546"/>
      <point x="342" y="677"/>
      <point x="508" y="701" type="qcurve"/>
      <point x="701" y="673" type="line"/>
      <point x="778" y="833" type="line"/>
      <point x="759" y="869" type="line"/>
      <point x="528" y="825" type="line"/>
      <point x="429" y="844"/>
      <point x="304" y="976"/>
      <point x="328" y="1092" type="qcurve" smooth="yes"/>
      <point x="350" y="1200"/>
      <point x="656" y="1372"/>
      <point x="942" y="1375" type="qcurve"/>
      <point x="968" y="1500" type="line"/>
      <point x="322" y="1527" type="line"/>
      <point x="227" y="1429" type="line"/>
      <point x="248" y="1345" type="line"/>
      <point x="479" y="1351" type="line"/>
      <point x="481" y="1346" type="line"/>
      <point x="365" y="1316"/>
      <point x="200" y="1167"/>
      <point x="182" y="1081" type="qcurve" smooth="yes"/>
      <point x="159" y="974"/>
      <point x="248" y="821"/>
      <point x="348" y="774" type="qcurve"/>
      <point x="347" y="767" type="line"/>
      <point x="183" y="710"/>
      <point x="16" y="544"/>
      <point x="-8" y="438" type="qcurve" smooth="yes"/>
      <point x="-50" y="247"/>
      <point x="144" y="20"/>
      <point x="392" y="-27" type="qcurve" smooth="yes"/>
      <point x="471" y="-42" type="line"/>
    </contour>
  </outline>
</glyph>
<glyph name="omega" format="2">
  <advance width="1417"/>
  <unicode hex="03C9"/>
  <anchor x="762" y="1000" name="GRKtop"/>
  <outline>
    <contour>
      <point x="257" y="-15" type="qcurve" smooth="yes"/>
      <point x="382" y="-22"/>
      <point x="547" y="118"/>
      <point x="577" y="183" type="qcurve"/>
      <point x="584" y="183" type="line"/>
      <point x="601" y="105"/>
      <point x="715" y="-10"/>
      <point x="834" y="-17" type="qcurve" smooth="yes"/>
      <point x="980" y="-28"/>
      <point x="1220" y="182"/>
      <point x="1265" y="374" type="qcurve" smooth="yes"/>
      <point x="1312" y="578"/>
      <point x="1233" y="908"/>
      <point x="1118" y="1018" type="qcurve"/>
      <point x="997" y="958" type="line"/>
      <point x="1089" y="856"/>
      <point x="1132" y="560"/>
      <point x="1096" y="392" type="qcurve" smooth="yes"/>
      <point x="1069" y="262"/>
      <point x="927" y="121"/>
      <point x="841" y="127" type="qcurve" smooth="yes"/>
      <point x="760" y="132"/>
      <point x="667" y="230"/>
      <point x="664" y="294" type="qcurve"/>
      <point x="784" y="712" type="line"/>
      <point x="753" y="737" type="line"/>
      <point x="584" y="688" type="line"/>
      <point x="539" y="293" type="line"/>
      <point x="495" y="210"/>
      <point x="374" y="122"/>
      <point x="303" y="127" type="qcurve" smooth="yes"/>
      <point x="196" y="135"/>
      <point x="134" y="338"/>
      <point x="165" y="498" type="qcurve" smooth="yes"/>
      <point x="190" y="624"/>
      <point x="341" y="864"/>
      <point x="474" y="958" type="qcurve"/>
      <point x="376" y="1018" type="line"/>
      <point x="223" y="933"/>
      <point x="27" y="644"/>
      <point x="-1" y="496" type="qcurve" smooth="yes"/>
      <point x="-45" y="261"/>
      <point x="110" y="-6"/>
    </contour>
  </outline>
</glyph>
<glyph name="em" format="2">
  <advance width="1545"/>
  <unicode hex="043C"/>
  <outline>
    <contour>
      <point x="676" y="0" type="line"/>
      <point x="536" y="0" type="line"/>
      <point x="518" y="466" type="line"/>
      <point x="506" y="718" type="line"/>
      <point x="504" y="825" type="line"/>
      <point x="500" y="825" type="line"/>
      <point x="469" y="723" type="line"/>
      <point x="353" y="364" type="line" smooth="yes"/>
      <point x="299" y="197"/>
      <point x="145" y="-19"/>
      <point x="32" y="-19" type="qcurve" smooth="yes"/>
      <point x="-18" y="-19"/>
      <point x="-80" y="38"/>
      <point x="-80" y="88" type="qcurve" smooth="yes"/>
      <point x="-80" y="136"/>
      <point x="-16" y="186"/>
      <point x="54" y="186" type="qcurve" smooth="yes"/>
      <point x="126" y="186"/>
      <point x="219" y="301"/>
      <point x="260" y="404" type="qcurve" smooth="yes"/>
      <point x="400" y="829" type="line"/>
      <point x="268" y="829" type="line"/>
      <point x="271" y="926" type="line"/>
      <point x="556" y="1000" type="line"/>
      <point x="616" y="1000" type="line"/>
      <point x="655" y="914" type="line"/>
      <point x="671" y="482" type="line"/>
      <point x="679" y="294" type="line"/>
      <point x="680" y="190" type="line"/>
      <point x="685" y="187" type="line"/>
      <point x="734" y="274" type="line"/>
      <point x="888" y="528" type="line"/>
      <point x="1164" y="992" type="line"/>
      <point x="1364" y="992" type="line"/>
      <point x="1266" y="522" type="line"/>
      <point x="1204" y="134" type="line"/>
      <point x="1347" y="134" type="line"/>
      <point x="1349" y="47" type="line"/>
      <point x="1063" y="-21" type="line"/>
      <point x="1021" y="70" type="line"/>
      <point x="1111" y="524" type="line"/>
      <point x="1155" y="754" type="line"/>
      <point x="1168" y="812" type="line"/>
      <point x="1165" y="813" type="line"/>
      <point x="1135" y="761" type="line"/>
      <point x="965" y="482" type="line"/>
    </contour>
  </outline>
</glyph>
<glyph name="foursuperior" format="2">
  <advance width="790"/>
  <unicode hex="2074"/>
  <outline>
    <contour>
      <point x="75" y="902" type="line"/>
      <point x="86" y="985" type="line"/>
      <point x="646" y="1540" type="line"/>
      <point x="742" y="1514" type="line"/>
      <point x="753" y="1490" type="line"/>
      <point x="641" y="954" type="line"/>
      <point x="600" y="735" type="line"/>
      <point x="609" y="653" type="line"/>
      <point x="484" y="611" type="line"/>
      <point x="436" y="669" type="line"/>
      <point x="508" y="968" type="line"/>
      <point x="585" y="1356" type="line"/>
      <point x="220" y="998" type="line"/>
      <point x="223" y="992" type="line"/>
      <point x="576" y="986" type="line"/>
      <point x="811" y="986" type="line"/>
      <point x="796" y="889" type="line"/>
      <point x="559" y="893" type="line"/>
    </contour>
  </outline>
</glyph>
<glyph name="diagonalbarL" format="2">
  <advance width="1104"/>
  <outline>
    <contour>
      <point x="350" y="819" type="line"/>
      <point x="702" y="1070" type="line"/>
      <point x="749" y="944" type="line"/>
      <point x="396" y="718" type="line"/>
      <point x="63" y="480" type="line"/>
      <point x="13" y="609" type="line"/>
    </contour>
  </outline>
</glyph>
<glyph name="dieresistonos.case" format="2">
  <advance width="1223"/>
  <outline>
    <contour>
      <point x="447" y="1528" type="qcurve" smooth="yes"/>
      <point x="394" y="1528"/>
      <point x="331" y="1590"/>
      <point x="331" y="1641" type="qcurve" smooth="yes"/>
      <point x="331" y="1696"/>
      <point x="391" y="1755"/>
      <point x="447" y="1755" type="qcurve" smooth="yes"/>
      <point x="500" y="1755"/>
      <point x="563" y="1692"/>
      <point x="563" y="1641" type="qcurve" smooth="yes"/>
      <point x="563" y="1587"/>
      <point x="504" y="1528"/>
    </contour>
    <contour>
      <point x="745" y="1525" type="line"/>
      <point x="658" y="1550" type="line"/>
      <point x="712" y="1923" type="line"/>
      <point x="876" y="1925" type="line"/>
      <point x="918" y="1865" type="line"/>
    </contour>
    <contour>
      <point x="1067" y="1528" type="qcurve" smooth="yes"/>
      <point x="1014" y="1528"/>
      <point x="951" y="1590"/>
      <point x="951" y="1641" type="qcurve" smooth="yes"/>
      <point x="951" y="1696"/>
      <point x="1011" y="1755"/>
      <point x="1067" y="1755" type="qcurve" smooth="yes"/>
      <point x="1120" y="1755"/>
      <point x="1183" y="1692"/>
      <point x="1183" y="1641" type="qcurve" smooth="yes"/>
      <point x="1183" y="1587"/>
      <point x="1124" y="1528"/>
    </contour>
  </outline>
</glyph>
<glyph name="eight.tab" format="2">
  <advance width="1000"/>
  <outline>
    <contour>
      <point x="566" y="886" type="line" smooth="yes"/>
      <point x="726" y="965"/>
      <point x="867" y="1147"/>
      <point x="867" y="1245" type="qcurve" smooth="yes"/>
      <point x="867" y="1321"/>
      <point x="776" y="1405"/>
      <point x="692" y="1405" type="qcurve" smooth="yes"/>
      <point x="551" y="1405"/>
      <point x="406" y="1262"/>
      <point x="406" y="1173" type="qcurve" smooth="yes"/>
      <point x="406" y="1082"/>
      <point x="546" y="944"/>
      <point x="653" y="867" type="qcurve" smooth="yes"/>
      <point x="761" y="790"/>
      <point x="949" y="577"/>
      <point x="949" y="449" type="qcurve" smooth="yes"/>
      <point x="949" y="261"/>
      <point x="629" y="-29"/>
      <point x="412" y="-29" type="qcurve" smooth="yes"/>
      <point x="226" y="-29"/>
      <point x="10" y="155"/>
      <point x="10" y="308" type="qcurve" smooth="yes"/>
      <point x="10" y="476"/>
      <point x="265" y="737"/>
      <point x="459" y="833" type="qcurve" smooth="yes"/>
    </contour>
    <contour>
      <point x="527" y="771" type="line" smooth="yes"/>
      <point x="351" y="688"/>
      <point x="163" y="449"/>
      <point x="163" y="317" type="qcurve" smooth="yes"/>
      <point x="163" y="217"/>
      <point x="294" y="80"/>
      <point x="427" y="80" type="qcurve" smooth="yes"/>
      <point x="574" y="80"/>
      <point x="778" y="253"/>
      <point x="778" y="388" type="qcurve" smooth="yes"/>
      <point x="778" y="516"/>
      <point x="603" y="676"/>
      <point x="528" y="729" type="qcurve" smooth="yes"/>
      <point x="453" y="782"/>
      <point x="251" y="982"/>
      <point x="251" y="1132" type="qcurve" smooth="yes"/>
      <point x="251" y="1285"/>
      <point x="504" y="1517"/>
      <point x="717" y="1517" type="qcurve" smooth="yes"/>
      <point x="846" y="1517"/>
      <point x="1014" y="1378"/>
      <point x="1014" y="1272" type="qcurve" smooth="yes"/>
      <point x="1014" y="1143"/>
      <point x="837" y="918"/>
      <point x="641" y="825" type="qcurve" smooth="yes"/>
    </contour>
  </outline>
</glyph>
<glyph name="eightsuperior" format="2">
  <advance width="1015"/>
  <outline>
    <contour>
      <point x="539" y="1151" type="line" smooth="yes"/>
      <point x="650" y="1198"/>
      <point x="743" y="1313"/>
      <point x="743" y="1371" type="qcurve" smooth="yes"/>
      <point x="743" y="1416"/>
      <point x="682" y="1460"/>
      <point x="625" y="1460" type="qcurve" smooth="yes"/>
      <point x="534" y="1460"/>
      <point x="431" y="1374"/>
      <point x="431" y="1322" type="qcurve" smooth="yes"/>
      <point x="431" y="1268"/>
      <point x="526" y="1186"/>
      <point x="598" y="1140" type="qcurve" smooth="yes"/>
      <point x="671" y="1095"/>
      <point x="806" y="968"/>
      <point x="806" y="892" type="qcurve" smooth="yes"/>
      <point x="806" y="784"/>
      <point x="582" y="608"/>
      <point x="435" y="608" type="qcurve" smooth="yes"/>
      <point x="309" y="608"/>
      <point x="155" y="717"/>
      <point x="155" y="808" type="qcurve" smooth="yes"/>
      <point x="155" y="908"/>
      <point x="334" y="1063"/>
      <point x="467" y="1120" type="qcurve" smooth="yes"/>
    </contour>
    <contour>
      <point x="513" y="1082" type="line" smooth="yes"/>
      <point x="396" y="1030"/>
      <point x="259" y="892"/>
      <point x="259" y="813" type="qcurve" smooth="yes"/>
      <point x="259" y="754"/>
      <point x="355" y="672"/>
      <point x="445" y="672" type="qcurve" smooth="yes"/>
      <point x="545" y="672"/>
      <point x="690" y="778"/>
      <point x="690" y="856" type="qcurve" smooth="yes"/>
      <point x="690" y="935"/>
      <point x="564" y="1027"/>
      <point x="513" y="1058" type="qcurve" smooth="yes"/>
      <point x="463" y="1090"/>
      <point x="326" y="1205"/>
      <point x="326" y="1298" type="qcurve" smooth="yes"/>
      <point x="326" y="1389"/>
      <point x="512" y="1527"/>
      <point x="642" y="1527" type="qcurve" smooth="yes"/>
      <point x="732" y="1527"/>
      <point x="843" y="1450"/>
      <point x="843" y="1387" type="qcurve" smooth="yes"/>
      <point x="843" y="1311"/>
      <point x="722" y="1174"/>
      <point x="591" y="1116" type="qcurve" smooth="yes"/>
    </contour>
  </outline>
</glyph>
<glyph name="five.tab" format="2">
  <advance width="1000"/>
  <outline>
    <contour>
      <point x="-87" y="202" type="qcurve" smooth="yes"/>
      <point x="-87" y="277"/>
      <point x="4" y="359"/>
      <point x="56" y="369" type="qcurve"/>
      <point x="66" y="364" type="line"/>
      <point x="66" y="290" type="line" smooth="yes"/>
      <point x="66" y="210"/>
      <point x="162" y="80"/>
      <point x="292" y="80" type="qcurve" smooth="yes"/>
      <point x="468" y="80"/>
      <point x="657" y="340"/>
      <point x="657" y="548" type="qcurve" smooth="yes"/>
      <point x="657" y="723"/>
      <point x="467" y="866"/>
      <point x="303" y="815" type="qcurve" smooth="yes"/>
      <point x="190" y="780" type="line"/>
      <point x="158" y="850" type="line"/>
      <point x="335" y="1467" type="line"/>
      <point x="367" y="1500" type="line"/>
      <point x="966" y="1500" type="line"/>
      <point x="935" y="1324" type="line"/>
      <point x="411" y="1324" type="line"/>
      <point x="400" y="1313" type="line"/>
      <point x="347" y="1123"/>
      <point x="291" y="918"/>
      <point x="249" y="870" type="qcurve"/>
      <point x="452" y="970" type="line"/>
      <point x="665" y="970"/>
      <point x="857" y="758"/>
      <point x="857" y="566" type="qcurve" smooth="yes"/>
      <point x="857" y="298"/>
      <point x="542" y="-24"/>
      <point x="289" y="-24" type="qcurve" smooth="yes"/>
      <point x="98" y="-24"/>
      <point x="-87" y="107"/>
    </contour>
  </outline>
</glyph>
<glyph name="fivesuperior" format="2">
  <advance width="630"/>
  <outline>
    <contour>
      <point x="1" y="746" type="qcurve" smooth="yes"/>
      <point x="1" y="791"/>
      <point x="63" y="840"/>
      <point x="98" y="846" type="qcurve"/>
      <point x="105" y="843" type="line"/>
      <point x="105" y="802" type="line" smooth="yes"/>
      <point x="105" y="753"/>
      <point x="168" y="674"/>
      <point x="251" y="674" type="qcurve" smooth="yes"/>
      <point x="371" y="674"/>
      <point x="509" y="828"/>
      <point x="509" y="952" type="qcurve" smooth="yes"/>
      <point x="509" y="1056"/>
      <point x="377" y="1141"/>
      <point x="265" y="1111" type="qcurve" smooth="yes"/>
      <point x="189" y="1090" type="line"/>
      <point x="167" y="1132" type="line"/>
      <point x="287" y="1499" type="line"/>
      <point x="309" y="1518" type="line"/>
      <point x="715" y="1518" type="line"/>
      <point x="694" y="1413" type="line"/>
      <point x="339" y="1413" type="line"/>
      <point x="331" y="1407" type="line"/>
      <point x="295" y="1294"/>
      <point x="257" y="1174"/>
      <point x="229" y="1143" type="qcurve"/>
      <point x="367" y="1203" type="line"/>
      <point x="511" y="1203"/>
      <point x="641" y="1077"/>
      <point x="641" y="963" type="qcurve" smooth="yes"/>
      <point x="641" y="803"/>
      <point x="409" y="612"/>
      <point x="235" y="612" type="qcurve" smooth="yes"/>
      <point x="126" y="612"/>
      <point x="1" y="690"/>
    </contour>
  </outline>
</glyph>
<glyph name="ninesuperior" format="2">
  <advance width="756"/>
  <outline>
    <contour>
      <point x="121" y="593" type="qcurve"/>
      <point x="95" y="652" type="line"/>
      <point x="299" y="711"/>
      <point x="636" y="1022"/>
      <point x="632" y="1250" type="qcurve" smooth="yes"/>
      <point x="630" y="1345"/>
      <point x="535" y="1465"/>
      <point x="436" y="1465" type="qcurve" smooth="yes"/>
      <point x="340" y="1465"/>
      <point x="218" y="1332"/>
      <point x="218" y="1206" type="qcurve" smooth="yes"/>
      <point x="218" y="1138"/>
      <point x="289" y="1055"/>
      <point x="367" y="1055" type="qcurve" smooth="yes"/>
      <point x="403" y="1055"/>
      <point x="470" y="1074"/>
      <point x="497" y="1090" type="qcurve"/>
      <point x="508" y="1050" type="line"/>
      <point x="483" y="1027"/>
      <point x="399" y="988"/>
      <point x="340" y="988" type="qcurve" smooth="yes"/>
      <point x="227" y="988"/>
      <point x="90" y="1112"/>
      <point x="90" y="1207" type="qcurve" smooth="yes"/>
      <point x="90" y="1341"/>
      <point x="298" y="1531"/>
      <point x="458" y="1531" type="qcurve" smooth="yes"/>
      <point x="605" y="1531"/>
      <point x="755" y="1359"/>
      <point x="755" y="1235" type="qcurve" smooth="yes"/>
      <point x="755" y="1036"/>
      <point x="400" y="678"/>
    </contour>
  </outline>
</glyph>
<glyph name="sevensuperior" format="2">
  <advance width="655"/>
  <outline>
    <contour>
      <point x="30" y="1278" type="line"/>
      <point x="134" y="1500" type="line"/>
      <point x="712" y="1500" type="line"/>
      <point x="723" y="1471" type="line"/>
      <point x="530" y="1227"/>
      <point x="296" y="801"/>
      <point x="238" y="634" type="qcurve"/>
      <point x="110" y="588" type="line"/>
      <point x="80" y="632" type="line"/>
      <point x="166" y="814"/>
      <point x="474" y="1244"/>
      <point x="576" y="1391" type="qcurve"/>
      <point x="568" y="1400" type="line"/>
      <point x="195" y="1400" type="line"/>
      <point x="99" y="1278" type="line"/>
    </contour>
  </outline>
</glyph>
<glyph name="sixsuperior" format="2">
  <advance width="756"/>
  <outline>
    <contour>
      <point x="25" y="908" type="qcurve" smooth="yes"/>
      <point x="25" y="1107"/>
      <point x="373" y="1465"/>
      <point x="658" y="1550" type="qcurve"/>
      <point x="684" y="1491" type="line"/>
      <point x="481" y="1432"/>
      <point x="144" y="1121"/>
      <point x="148" y="893" type="qcurve" smooth="yes"/>
      <point x="150" y="798"/>
      <point x="240" y="678"/>
      <point x="350" y="678" type="qcurve" smooth="yes"/>
      <point x="447" y="678"/>
      <point x="567" y="809"/>
      <point x="561" y="937" type="qcurve" smooth="yes"/>
      <point x="559" y="1005"/>
      <point x="482" y="1088"/>
      <point x="412" y="1088" type="qcurve" smooth="yes"/>
      <point x="376" y="1088"/>
      <point x="310" y="1069"/>
      <point x="283" y="1053" type="qcurve"/>
      <point x="271" y="1093" type="line"/>
      <point x="296" y="1116"/>
      <point x="381" y="1155"/>
      <point x="440" y="1155" type="qcurve" smooth="yes"/>
      <point x="553" y="1155"/>
      <point x="690" y="1031"/>
      <point x="690" y="936" type="qcurve" smooth="yes"/>
      <point x="690" y="802"/>
      <point x="481" y="612"/>
      <point x="322" y="612" type="qcurve" smooth="yes"/>
      <point x="169" y="612"/>
      <point x="25" y="780"/>
    </contour>
  </outline>
</glyph>
<glyph name="tildecomb-stack.case" format="2">
  <anchor x="195.0" y="1500" name="_top"/>
  <anchor x="279.0" y="1936" name="top"/>
  <outline>
    <contour>
      <point x="-198" y="1699" type="line"/>
      <point x="-139" y="1762"/>
      <point x="59" y="1867"/>
      <point x="147" y="1867" type="qcurve" smooth="yes"/>
      <point x="199" y="1867"/>
      <point x="285" y="1844"/>
      <point x="326" y="1818" type="qcurve" smooth="yes"/>
      <point x="355" y="1801"/>
      <point x="454" y="1749"/>
      <point x="513" y="1749" type="qcurve" smooth="yes"/>
      <point x="572" y="1749"/>
      <point x="689" y="1803"/>
      <point x="734" y="1840" type="qcurve"/>
      <point x="792" y="1755" type="line"/>
      <point x="724" y="1679"/>
      <point x="545" y="1597"/>
      <point x="473" y="1597" type="qcurve" smooth="yes"/>
      <point x="411" y="1597"/>
      <point x="302" y="1637"/>
      <point x="271" y="1657" type="qcurve" smooth="yes"/>
      <point x="235" y="1680"/>
      <point x="150" y="1715"/>
      <point x="110" y="1715" type="qcurve" smooth="yes"/>
      <point x="42" y="1715"/>
      <point x="-95" y="1646"/>
      <point x="-128" y="1618" type="qcurve"/>
    </contour>
  </outline>
</glyph>
<glyph name="tildecomb.case" format="2">
  <anchor x="98.0" y="1500" name="_top"/>
  <anchor x="182.0" y="1932.0" name="top"/>
  <outline>
    <contour>
      <point x="-318" y="1743" type="line"/>
      <point x="-254" y="1806"/>
      <point x="-38" y="1911"/>
      <point x="57" y="1911" type="qcurve" smooth="yes"/>
      <point x="114" y="1911"/>
      <point x="206" y="1888"/>
      <point x="252" y="1862" type="qcurve" smooth="yes"/>
      <point x="284" y="1845"/>
      <point x="391" y="1793"/>
      <point x="453" y="1793" type="qcurve" smooth="yes"/>
      <point x="514" y="1793"/>
      <point x="639" y="1847"/>
      <point x="684" y="1884" type="qcurve"/>
      <point x="758" y="1799" type="line"/>
      <point x="684" y="1723"/>
      <point x="489" y="1641"/>
      <point x="412" y="1641" type="qcurve" smooth="yes"/>
      <point x="345" y="1641"/>
      <point x="225" y="1681"/>
      <point x="192" y="1701" type="qcurve" smooth="yes"/>
      <point x="153" y="1724"/>
      <point x="60" y="1759"/>
      <point x="14" y="1759" type="qcurve" smooth="yes"/>
      <point x="-59" y="1759"/>
      <point x="-212" y="1690"/>
      <point x="-249" y="1662" type="qcurve"/>
    </contour>
  </outline>
</glyph>
<glyph name="yi-dieresiscomb" format="2">
  <outline>
    <contour>
      <point x="-259" y="1337" type="qcurve" smooth="yes"/>
      <point x="-253" y="1396"/>
      <point x="-191" y="1460"/>
      <point x="-138" y="1460" type="qcurve" smooth="yes"/>
      <point x="-89" y="1460"/>
      <point x="-35" y="1392"/>
      <point x="-41" y="1337" type="qcurve" smooth="yes"/>
      <point x="-47" y="1278"/>
      <point x="-109" y="1214"/>
      <point x="-162" y="1214" type="qcurve" smooth="yes"/>
      <point x="-211" y="1214"/>
      <point x="-265" y="1282"/>
    </contour>
    <contour>
      <point x="41" y="1337" type="qcurve" smooth="yes"/>
      <point x="47" y="1396"/>
      <point x="109" y="1460"/>
      <point x="162" y="1460" type="qcurve" smooth="yes"/>
      <point x="211" y="1460"/>
      <point x="265" y="1392"/>
      <point x="259" y="1337" type="qcurve" smooth="yes"/>
      <point x="253" y="1278"/>
      <point x="191" y="1214"/>
      <point x="138" y="1214" type="qcurve" smooth="yes"/>
      <point x="89" y="1214"/>
      <point x="35" y="1282"/>
    </contour>
  </outline>
</glyph>
